<svg width="211" height="211" viewBox="0 0 211 211" fill="none" xmlns="http://www.w3.org/2000/svg">
    <rect width="211" height="211" rx="30" fill="black"/>
    <path d="M53.831 97.596V103.074H63.302V107.298H53.831V112.776H64.358V117H49.376V93.372H64.358V97.596H53.831ZM65.5656 100.83H70.4826L74.5086 111.126H74.7396L78.7986 100.83H83.6826L76.7196 117H72.4626L65.5656 100.83ZM100.479 113.106C99.7313 114.426 98.7193 115.493 97.4433 116.307C96.1893 117.121 94.6493 117.528 92.8233 117.528C91.5913 117.528 90.4473 117.319 89.3913 116.901C88.3573 116.461 87.4553 115.856 86.6853 115.086C85.9153 114.316 85.3103 113.414 84.8703 112.38C84.4523 111.324 84.2433 110.169 84.2433 108.915C84.2433 107.749 84.4523 106.649 84.8703 105.615C85.2883 104.559 85.8713 103.646 86.6193 102.876C87.3673 102.084 88.2473 101.457 89.2593 100.995C90.2933 100.533 91.4263 100.302 92.6583 100.302C93.9563 100.302 95.1113 100.522 96.1233 100.962C97.1353 101.38 97.9823 101.974 98.6643 102.744C99.3463 103.492 99.8633 104.383 100.215 105.417C100.567 106.451 100.743 107.573 100.743 108.783C100.743 108.937 100.743 109.069 100.743 109.179C100.721 109.311 100.71 109.432 100.71 109.542C100.688 109.652 100.677 109.773 100.677 109.905H88.5003C88.5883 110.565 88.7643 111.137 89.0283 111.621C89.3143 112.083 89.6553 112.479 90.0513 112.809C90.4693 113.117 90.9203 113.348 91.4043 113.502C91.8883 113.634 92.3833 113.7 92.8893 113.7C93.8793 113.7 94.6933 113.48 95.3313 113.04C95.9913 112.578 96.5083 112.006 96.8823 111.324L100.479 113.106ZM96.5523 106.836C96.5303 106.55 96.4313 106.231 96.2553 105.879C96.1013 105.527 95.8593 105.197 95.5293 104.889C95.2213 104.581 94.8253 104.328 94.3413 104.13C93.8793 103.932 93.3183 103.833 92.6583 103.833C91.7343 103.833 90.9203 104.097 90.2163 104.625C89.5123 105.153 89.0173 105.89 88.7313 106.836H96.5523ZM107.563 102.942H107.827C108.333 102.128 109.015 101.49 109.873 101.028C110.731 100.544 111.71 100.302 112.81 100.302C113.822 100.302 114.713 100.467 115.483 100.797C116.253 101.127 116.88 101.6 117.364 102.216C117.87 102.81 118.244 103.536 118.486 104.394C118.75 105.23 118.882 106.165 118.882 107.199V117H114.559V107.727C114.559 106.561 114.295 105.703 113.767 105.153C113.261 104.581 112.513 104.295 111.523 104.295C110.929 104.295 110.401 104.427 109.939 104.691C109.499 104.933 109.114 105.274 108.784 105.714C108.476 106.132 108.234 106.638 108.058 107.232C107.904 107.804 107.827 108.42 107.827 109.08V117H103.504V100.83H107.563V102.942ZM123.398 104.526H120.56V100.83H123.398V95.88H127.721V100.83H131.681V104.526H127.721V110.796C127.721 111.17 127.754 111.522 127.82 111.852C127.908 112.16 128.062 112.424 128.282 112.644C128.59 112.996 129.03 113.172 129.602 113.172C129.976 113.172 130.273 113.139 130.493 113.073C130.713 112.985 130.922 112.875 131.12 112.743L132.341 116.538C131.835 116.78 131.285 116.956 130.691 117.066C130.119 117.198 129.481 117.264 128.777 117.264C127.963 117.264 127.226 117.143 126.566 116.901C125.928 116.637 125.389 116.285 124.949 115.845C123.915 114.855 123.398 113.447 123.398 111.621V104.526Z" fill="white"/>
    <path d="M147.145 100.066H156.309V117H155.263C152.385 117 150.315 116.496 149.054 115.489C147.781 114.471 147.145 112.789 147.145 110.442V100.066ZM135.158 108.732C135.158 107.515 135.319 106.386 135.64 105.346C135.961 104.294 136.459 103.376 137.134 102.59C138.595 100.908 140.687 100.066 143.409 100.066H144.688V117H143.824C141.035 117 138.877 116.236 137.35 114.709C135.889 113.248 135.158 111.256 135.158 108.732Z" fill="url(#paint0_linear_5_105)"/>
    <g clip-path="url(#clip0_5_105)">
    <path d="M161 92.75C159.208 92.75 157.75 94.208 157.75 96C157.75 97.792 159.208 99.25 161 99.25C162.792 99.25 164.25 97.792 164.25 96C164.25 94.208 162.792 92.75 161 92.75ZM161 93.25C162.521 93.25 163.75 94.4785 163.75 96C163.75 97.5215 162.521 98.75 161 98.75C159.479 98.75 158.25 97.5215 158.25 96C158.25 94.4785 159.479 93.25 161 93.25ZM160 94.5V97.5H160.5V96.5H161.352L161.75 97.5H162.25L161.828 96.4375C162.219 96.3018 162.5 95.9375 162.5 95.5C162.5 94.9473 162.053 94.5 161.5 94.5H160ZM160.5 95H161.5C161.798 95 162 95.2021 162 95.5C162 95.7979 161.798 96 161.5 96H160.5V95Z" fill="white"/>
    </g>
    <defs>
    <linearGradient id="paint0_linear_5_105" x1="135.158" y1="100.066" x2="158.608" y2="104.317" gradientUnits="userSpaceOnUse">
    <stop stop-color="#439DFE"/>
    <stop offset="1" stop-color="#F687FF"/>
    </linearGradient>
    <clipPath id="clip0_5_105">
    <rect width="8" height="8" fill="white" transform="translate(157 92)"/>
    </clipPath>
    </defs>
    </svg>
    